<?xml version="1.0" encoding="UTF-8" standalone="no"?>
<svg viewBox="0 -2 70 70" fill="none" xmlns="http://www.w3.org/2000/svg" xmlns:xlink="http://www.w3.org/1999/xlink">

    <path id="curve2" fill="transparent" stroke="#4ab9d5" stroke-width="1" d="M 15 8 A 30 30 0 1 1 47 60 A 30 30 0 1 1 15 8 " />

    <path d="M59 7.99999V46C59 46.2652 58.8946 46.5196 58.7071 46.7071C58.5196 46.8946 58.2652 47 58 47H6C5.73478 47 5.48043 46.8946 5.29289 46.7071C5.10536 46.5196 5 46.2652 5 46V7.99999C5 7.73477 5.10536 7.48042 5.29289 7.29288C5.48043 7.10535 5.73478 6.99999 6 6.99999H58C58.1997 6.99797 58.3951 7.05731 58.56 7.16999C58.6124 7.2069 58.6625 7.24698 58.71 7.28999C58.8959 7.47956 59 7.73448 59 7.99999V7.99999Z" fill="#C6C5CA" />
    <path d="M54 11H10C9.44772 11 9 11.4477 9 12V38C9 38.5523 9.44772 39 10 39H54C54.5523 39 55 38.5523 55 38V12C55 11.4477 54.5523 11 54 11Z" fill="#5AAAE7" />
    <path d="M40 55H24L25 47H39L40 55Z" fill="#C6C5CA" />
    <path d="M45 55H19C18.4477 55 18 55.4477 18 56V60C18 60.5523 18.4477 61 19 61H45C45.5523 61 46 60.5523 46 60V56C46 55.4477 45.5523 55 45 55Z" fill="#ACABB1" />
    <path d="M39.25 49H24.75L25 47H39L39.25 49Z" fill="#ACABB1" />
    <path d="M45.68 7C44.8712 7.5675 44.1415 8.24007 43.51 9C42.5412 10.1724 41.8292 11.5351 41.42 13C41.1372 13.9748 40.9958 14.9851 41 16C40.9938 17.7023 41.3842 19.3827 42.1403 20.9079C42.8964 22.4332 43.9974 23.7613 45.356 24.787C46.7146 25.8128 48.2935 26.5079 49.9674 26.8174C51.6414 27.1269 53.3645 27.0422 55 26.57V7H45.68Z" fill="#3D9AE2" />
    <path d="M58.71 7.28999C58.6625 7.24698 58.6124 7.2069 58.56 7.16999C58.3951 7.05731 58.1997 6.99797 58 6.99999H55V26.57C56.4687 26.1704 57.8333 25.4574 59 24.48V7.99999C59 7.73448 58.8959 7.47956 58.71 7.28999V7.28999Z" fill="#ACABB1" />
    <path d="M61 14C61 16.9174 59.8411 19.7153 57.7782 21.7782C55.7153 23.8411 52.9174 25 50 25C47.0826 25 44.2847 23.8411 42.2218 21.7782C40.1589 19.7153 39 16.9174 39 14C38.9958 12.985 39.1372 11.9748 39.42 11C39.8292 9.53512 40.5412 8.17242 41.51 6.99999C42.9511 5.25076 44.8973 3.98934 47.0825 3.38823C49.2677 2.78712 51.5852 2.87565 53.7182 3.64173C55.8512 4.40781 57.6955 5.81403 58.9989 7.66811C60.3023 9.52219 61.0012 11.7336 61 14V14Z" fill="#FF9811" />
    <path d="M57.11 11.21L57.13 11.23C57.3153 11.414 57.4624 11.6329 57.5628 11.8741C57.6632 12.1152 57.7149 12.3738 57.7149 12.635C57.7149 12.8962 57.6632 13.1548 57.5628 13.3959C57.4624 13.6371 57.3153 13.856 57.13 14.04L52.17 19L50.75 20.42C50.566 20.6053 50.3471 20.7524 50.1059 20.8528C49.8648 20.9532 49.6062 21.0049 49.345 21.0049C49.0838 21.0049 48.8252 20.9532 48.5841 20.8528C48.3429 20.7524 48.124 20.6053 47.94 20.42L46.51 19L45.09 17.58C44.7199 17.204 44.5125 16.6976 44.5125 16.17C44.5125 15.6424 44.7199 15.136 45.09 14.76L45.11 14.75C45.294 14.5647 45.5129 14.4176 45.7541 14.3172C45.9952 14.2168 46.2538 14.1651 46.515 14.1651C46.7762 14.1651 47.0348 14.2168 47.2759 14.3172C47.5171 14.4176 47.736 14.5647 47.92 14.75L49.34 16.17L54.3 11.21C54.6743 10.8405 55.1791 10.6334 55.705 10.6334C56.2309 10.6334 56.7357 10.8405 57.11 11.21Z" fill="#EE8700" />
    <path d="M56.11 10.21L56.13 10.23C56.3153 10.414 56.4624 10.6329 56.5628 10.8741C56.6632 11.1152 56.7149 11.3738 56.7149 11.635C56.7149 11.8962 56.6632 12.1548 56.5628 12.3959C56.4624 12.6371 56.3153 12.856 56.13 13.04L51.17 18L49.75 19.42C49.566 19.6053 49.3471 19.7524 49.1059 19.8528C48.8648 19.9532 48.6062 20.0049 48.345 20.0049C48.0838 20.0049 47.8252 19.9532 47.5841 19.8528C47.3429 19.7524 47.124 19.6053 46.94 19.42L45.51 18L44.09 16.58C43.7199 16.204 43.5125 15.6976 43.5125 15.17C43.5125 14.6424 43.7199 14.136 44.09 13.76L44.11 13.75C44.294 13.5647 44.5129 13.4176 44.7541 13.3172C44.9952 13.2168 45.2538 13.1651 45.515 13.1651C45.7762 13.1651 46.0348 13.2168 46.2759 13.3172C46.5171 13.4176 46.736 13.5647 46.92 13.75L48.34 15.17L53.3 10.21C53.6743 9.84053 54.1791 9.63336 54.705 9.63336C55.2309 9.63336 55.7357 9.84053 56.11 10.21Z" fill="#FF5023" />
    <path d="M52 42H50V44H52V42Z" fill="black" />
    <path d="M43.386 17.286L46.229 20.129C46.791 20.6875 47.5512 21.0009 48.3435 21.0009C49.1358 21.0009 49.896 20.6875 50.458 20.129L56.835 13.751C57.1139 13.4723 57.3349 13.1411 57.4852 12.7766C57.6355 12.412 57.7123 12.0214 57.7109 11.6271C57.7096 11.2328 57.6303 10.8426 57.4776 10.4791C57.3249 10.1156 57.1017 9.7859 56.821 9.509C56.2517 8.96497 55.4945 8.66138 54.707 8.66138C53.9195 8.66138 53.1623 8.96497 52.593 9.509L48.343 13.758L47.629 13.044C47.0663 12.4813 46.3032 12.1652 45.5075 12.1652C44.7118 12.1652 43.9487 12.4813 43.386 13.044C42.8233 13.6067 42.5072 14.3698 42.5072 15.1655C42.5072 15.9612 42.8233 16.7243 43.386 17.287V17.286ZM44.814 14.458C44.9059 14.366 45.015 14.2929 45.1351 14.2431C45.2552 14.1933 45.384 14.1677 45.514 14.1677C45.644 14.1677 45.7728 14.1933 45.8929 14.2431C46.013 14.2929 46.1221 14.366 46.214 14.458L47.635 15.878C47.8225 16.0655 48.0768 16.1708 48.342 16.1708C48.6072 16.1708 48.8615 16.0655 49.049 15.878L54.006 10.922C54.1955 10.7365 54.4509 10.6339 54.7161 10.6367C54.9813 10.6395 55.2345 10.7475 55.42 10.937C55.512 11.0289 55.5851 11.138 55.6349 11.2581C55.6847 11.3782 55.7103 11.507 55.7103 11.637C55.7103 11.767 55.6847 11.8958 55.6349 12.0159C55.5851 12.136 55.512 12.2451 55.42 12.337L49.042 18.715C48.8563 18.9006 48.6045 19.0049 48.342 19.0049C48.0795 19.0049 47.8277 18.9006 47.642 18.715L44.8 15.872C44.6144 15.6826 44.5116 15.4273 44.5142 15.1621C44.5168 14.8969 44.6247 14.6437 44.814 14.458V14.458Z" fill="black" />
    <path d="M50 2C48.3153 2.00103 46.6499 2.35788 45.1127 3.0472C43.5756 3.73651 42.2013 4.74274 41.08 6H6C5.47005 6.00159 4.96227 6.21281 4.58753 6.58754C4.2128 6.96227 4.00158 7.47006 4 8V46C4.00158 46.53 4.2128 47.0377 4.58753 47.4125C4.96227 47.7872 5.47005 47.9984 6 48H23.87L23.12 54H19C18.4701 54.0016 17.9623 54.2128 17.5875 54.5875C17.2128 54.9623 17.0016 55.4701 17 56V60C17.0016 60.53 17.2128 61.0377 17.5875 61.4125C17.9623 61.7872 18.4701 61.9984 19 62H45C45.5299 61.9984 46.0377 61.7872 46.4125 61.4125C46.7872 61.0377 46.9984 60.53 47 60V56C46.9984 55.4701 46.7872 54.9623 46.4125 54.5875C46.0377 54.2128 45.5299 54.0016 45 54H40.88L40.13 48H58C58.5299 47.9984 59.0377 47.7872 59.4125 47.4125C59.7872 47.0377 59.9984 46.53 60 46V20.62C61.1993 18.8129 61.886 16.7143 61.9869 14.5477C62.0878 12.3812 61.5991 10.2278 60.5729 8.31705C59.5467 6.40628 58.0214 4.80965 56.1595 3.69722C54.2977 2.58479 52.1689 1.99822 50 2V2ZM45 56V60H19V56H45ZM25.13 54L25.88 48H38.12L38.87 54H25.13ZM58 46H6V8H39.62C39.2552 8.63838 38.9474 9.30763 38.7 10H10C9.47005 10.0016 8.96227 10.2128 8.58753 10.5875C8.2128 10.9623 8.00158 11.4701 8 12V38C8.00158 38.53 8.2128 39.0377 8.58753 39.4125C8.96227 39.7872 9.47005 39.9984 10 40H54C54.5299 39.9984 55.0377 39.7872 55.4125 39.4125C55.7872 39.0377 55.9984 38.53 56 38V24.38C56.715 23.9632 57.3852 23.474 58 22.92V46ZM38.7 18H34V20H39.62C41.0131 22.4313 43.2174 24.2948 45.8466 25.2639C48.4759 26.2329 51.3623 26.2457 54 25.3V38H10V12H38.18C37.8213 14.0109 38.0007 16.0808 38.7 18ZM50 24C48.0222 24 46.0888 23.4135 44.4443 22.3147C42.7998 21.2159 41.5181 19.6541 40.7612 17.8268C40.0043 15.9996 39.8063 13.9889 40.1921 12.0491C40.578 10.1093 41.5304 8.32746 42.9289 6.92894C44.3275 5.53041 46.1093 4.578 48.0491 4.19215C49.9889 3.8063 51.9996 4.00433 53.8268 4.76121C55.6541 5.51809 57.2159 6.79981 58.3147 8.4443C59.4135 10.0888 60 12.0222 60 14C59.9958 16.6509 58.9408 19.192 57.0664 21.0664C55.1919 22.9408 52.6509 23.9958 50 24Z" fill="black" />
    <path d="M14.414 20L16.707 17.707L15.293 16.293L12.293 19.293C12.1055 19.4805 12.0002 19.7348 12.0002 20C12.0002 20.2652 12.1055 20.5195 12.293 20.707L15.293 23.707L16.707 22.293L14.414 20Z" fill="black" />
    <path d="M24.707 23.707L27.707 20.707C27.8945 20.5195 27.9998 20.2652 27.9998 20C27.9998 19.7348 27.8945 19.4805 27.707 19.293L24.707 16.293L23.293 17.707L25.586 20L23.293 22.293L24.707 23.707Z" fill="black" />
    <path d="M20.0306 15.7573L18.0297 23.7569L19.9699 24.2422L21.9708 16.2426L20.0306 15.7573Z" fill="black" />
    <path d="M40 22H30V24H40V22Z" fill="black" />
    <path d="M32 18H30V20H32V18Z" fill="black" />
    <path d="M40 26H28V28H40V26Z" fill="black" />
    <path d="M26 26H20V28H26V26Z" fill="black" />
    <path d="M18 26H16V28H18V26Z" fill="black" />
    <path d="M30 30H16V32H30V30Z" fill="black" />
    <path d="M36 30H32V32H36V30Z" fill="black" />
    <path d="M40 30H38V32H40V30Z" fill="black" />
    <path d="M40 34H16V36H40V34Z" fill="black" />
    <text font-size="8px" fill="white">
        <textPath xlink:href="#curve2">
           Sobre mí
        </textPath>
    </text>
</svg>