<?xml version="1.0" encoding="UTF-8"?>
<!DOCTYPE svg PUBLIC "-//W3C//DTD SVG 1.1//EN" "http://www.w3.org/Graphics/SVG/1.1/DTD/svg11.dtd">
<!-- Creator: CorelDRAW -->
<svg xmlns="http://www.w3.org/2000/svg" xml:space="preserve" width="1.70666in" height="1.70666in" version="1.1" style="shape-rendering:geometricPrecision; text-rendering:geometricPrecision; image-rendering:optimizeQuality; fill-rule:evenodd; clip-rule:evenodd"
    viewBox="-100 -150 2100 2100"
    xmlns:xlink="http://www.w3.org/1999/xlink"
    xmlns:xodm="http://www.corel.com/coreldraw/odm/2003">
    <defs>
        <style type="text/css">
            <![CDATA[
    .fil3 {fill:#25A753}
    .fil4 {fill:#A0A0A0}
    .fil0 {fill:#FA3C48}
    .fil2 {fill:#FF6633}
    .fil1 {fill:#FFA725}
   ]]>
        </style>
    </defs>
    <g id="Layer_x0020_1">
        <metadata id="CorelCorpID_0Corel-Layer" />

        <path id="curve" fill="transparent" stroke="#4ab9d5" stroke-width="20" d="M 1300 50 A 50 50 0 1 1 500 1850 A 50 50 0 1 1 1300 50  " />

        <path class="fil0" d="M433.43 1591.8c-11.04,0 -20,-8.97 -20,-20l0 -127.5c0,-26.33 40,-26.32 40,0l0 127.5c0,11.03 -8.94,20 -20,20z" />
        <path class="fil1" d="M755.86 1591.8c-11.04,0 -20,-8.97 -20,-20l0 -127.5c0,-26.33 40,-26.32 40,0l0 127.5c0,11.03 -8.94,20 -20,20z" />
        <path class="fil2" d="M1078.29 1591.8c-11.04,0 -20,-8.97 -20,-20l0 -127.5c0,-26.33 40,-26.32 40,0l0 127.5c0.01,11.03 -8.96,20 -20,20z" />
        <path class="fil3" d="M1400.72 1591.8c-11.04,0 -20,-8.97 -20,-20l0 -127.5c0,-26.33 40,-26.32 40,0l0 127.5c0.01,11.03 -8.96,20 -20,20z" />
        <path class="fil3" d="M147.5 325.81l-127.5 0c-26.33,0 -26.33,-40 0,-40l127.5 0c26.33,0 26.33,40 0,40z" />
        <path class="fil2" d="M147.5 648.24l-127.5 0c-26.33,0 -26.33,-40 0,-40l127.5 0c26.33,0 26.33,40 0,40z" />
        <path class="fil1" d="M147.5 970.67l-127.5 0c-26.32,0 -26.32,-40 0,-40l127.5 0c26.33,0 26.33,40 0,40z" />
        <path class="fil0" d="M147.5 1293.1l-127.5 0c-26.32,0 -26.32,-40 0,-40l127.5 0c26.33,0 26.33,40 0,40z" />
        <path class="fil3" d="M1497.31 1464.3l-189.85 0c-11.04,0 -20,-8.97 -20,-20l0 -914.46c0,-11.04 8.97,-20 20,-20l189.85 0c11.04,0 20,8.96 20,20l0 914.45c0.02,11.06 -8.95,20.02 -20,20.02z" />
        <path class="fil2" d="M1174.54 1464.3l-189.86 0c-11.04,0 -20,-8.97 -20,-20l0 -681.96c0,-11.04 8.97,-20 20,-20l189.86 0c11.04,0 20,8.96 20,20l0 681.96c0,11.04 -8.96,20 -20,20z" />
        <path class="fil1" d="M850.23 1464.3l-189.86 0c-11.04,0 -20,-8.97 -20,-20l0 -499.86c0,-11.04 8.96,-20 20,-20l189.86 0c11.04,0 20,8.97 20,20l0 499.84c0.02,11.06 -8.96,20.02 -20,20.02z" />
        <path class="fil0" d="M526.69 1464.3l-189.85 0c-11.04,0 -20,-8.97 -20,-20l0 -325.48c0,-11.04 8.96,-20 20,-20l189.87 0c11.04,0 20,8.97 20,20l0 325.48c-0.02,11.04 -8.96,20 -20.02,20z" />
        <path class="fil4" d="M1686.66 1464.3l-1539.15 0c-11.04,0 -20,-8.97 -20,-20l0 -1309.68c0,-26.33 40,-26.33 40,0l0 1289.67 1519.15 0c26.33,0 26.31,40.02 0,40.02z" />
        <path class="fil3" d="M346.88 836.29c-24.7,0 -27.13,-36.83 -2.33,-39.85 3.16,-0.39 312.3,-43.49 860.31,-556.8l-247.39 67.8c-25.48,6.95 -35.93,-31.63 -10.58,-38.57l328.28 -89.96c14.84,-4.06 28.65,9.72 24.57,24.57l-89.98 328.28c-6.9,25.3 -45.56,14.94 -38.57,-10.58l72 -262.72c-566.08,533.68 -882.71,577.82 -896.31,577.82z" />
        <text font-size="250px" fill="white">
            <textPath xlink:href="#curve">
               Proyectos
            </textPath>
        </text>
    </g>

</svg>